<svg width="36" height="36" viewBox="0 0 36 36" fill="none" xmlns="http://www.w3.org/2000/svg">
<g clip-path="url(#clip0_58_5)">
<path d="M8.18501 5.02441H9.09529L9.0998 8.51969C9.10007 8.75307 9.28936 8.98925 9.52281 8.98925C9.52294 8.98925 9.52308 8.98925 9.52335 8.98925C9.75701 8.98925 9.94609 8.75211 9.94581 8.5186L9.9413 5.02441H10.8482C10.9962 5.02441 11.1273 4.99057 11.1824 4.85337C11.2375 4.71611 11.2038 4.58889 11.0968 4.48676L9.76521 3.2284C9.62582 3.09544 9.40755 3.10201 9.26803 3.23531L7.93639 4.51089C7.82948 4.61302 7.79591 4.71453 7.85094 4.8518C7.90597 4.989 8.03708 5.02441 8.18501 5.02441Z" fill="#C28854"/>
<path d="M25.3613 9.81818C25.1275 9.81818 24.9854 10.0074 24.9854 10.2412V11.5209C25.1221 11.4825 25.4639 11.4487 25.7373 11.4194V10.2413C25.7373 10.0074 25.5951 9.81818 25.3613 9.81818Z" fill="#C28854"/>
<path d="M24.0917 5.02442H25.0021L25.0065 8.5197C25.0068 8.75308 25.1961 8.98926 25.4295 8.98926C25.4296 8.98926 25.4299 8.98926 25.43 8.98926C25.6637 8.98926 25.8528 8.75212 25.8525 8.5186L25.8481 5.02442H26.7549C26.9028 5.02442 27.016 4.99071 27.071 4.85352C27.1262 4.71625 27.1729 4.59956 26.9678 4.49743V4.50584L25.6541 3.23798C25.5146 3.10488 25.3052 3.10687 25.1657 3.2401L23.8387 4.51316C23.7317 4.61528 23.7002 4.71543 23.7553 4.85297C23.8103 4.99024 23.9438 5.02442 24.0917 5.02442Z" fill="#C28854"/>
<path d="M20.3892 7.60259L19.5503 5.20461C19.5067 5.07981 19.5545 4.94321 19.6689 4.8662L21.865 3.33105C22.1204 3.15864 21.9893 2.73047 21.6735 2.73047H18.9588C18.8177 2.73047 18.6924 2.6989 18.6488 2.57428L17.81 0.202743C17.7124 -0.076256 17.2875 -0.0629868 17.1899 0.215926L16.3511 2.56769C16.3075 2.6924 16.1822 2.73047 16.0411 2.73047H13.3265C13.0108 2.73047 12.8795 3.15864 13.135 3.33105L15.3311 4.83983C15.4455 4.91676 15.4932 5.06662 15.4495 5.19151L14.6107 7.59609C14.5131 7.87509 14.8569 8.11037 15.1124 7.93788L17.3085 6.45746C17.4227 6.38036 17.5773 6.38122 17.6917 6.45841L19.8879 7.94074C20.1431 8.11315 20.4867 7.88159 20.3892 7.60259Z" fill="#EADD6D"/>
<path d="M31.2678 30.5472C31.329 30.5538 31.354 30.5571 31.4152 30.5571C32.3011 30.5571 32.9833 29.835 32.9833 28.9491V13.4293C32.8466 13.4128 32.5048 13.3978 32.3681 13.3862V12.3836C32.3681 11.8977 32.0136 11.4916 31.5321 11.4425C30.3771 11.3241 28.1896 11.1763 25.8133 11.4192C25.5333 11.4486 25.2532 11.4824 24.9701 11.5208C22.3308 11.8945 19.6409 12.7973 17.946 14.7815C17.9456 14.782 17.9443 14.7826 17.9443 14.7831V33.3513C18.0811 33.2896 18.4303 33.1725 18.6413 33.0047C19.8883 32.0145 22.7581 30.3533 28.0425 30.3533C29.0726 30.3533 30.155 30.4196 31.2678 30.5472ZM20.5697 16.688C23.1621 15.2529 25.8483 14.7415 29.024 15.0785C29.2562 15.1032 29.4245 15.3113 29.3999 15.5438C29.3754 15.776 29.1675 15.9436 28.9346 15.9198C25.9404 15.6015 23.4125 16.0811 20.9794 17.4281C20.9144 17.464 20.8441 17.4811 20.7749 17.4811C20.626 17.4811 20.4817 17.4024 20.4045 17.2629C20.2913 17.0585 20.3653 16.8011 20.5697 16.688ZM20.5697 19.7085C23.1621 18.2734 25.8483 17.7617 29.024 18.099C29.2562 18.1237 29.4245 18.332 29.3999 18.5644C29.3754 18.7965 29.1675 18.9641 28.9346 18.9403C25.9404 18.622 23.4125 19.1017 20.9794 20.4486C20.9144 20.4845 20.8441 20.5016 20.7749 20.5016C20.626 20.5016 20.4817 20.423 20.4045 20.2835C20.2913 20.0791 20.3653 19.8216 20.5697 19.7085ZM20.5697 22.729C23.1621 21.294 25.8483 20.7822 29.024 21.1195C29.2562 21.1442 29.4245 21.3525 29.3999 21.5848C29.3754 21.817 29.1675 21.9846 28.9346 21.9608C25.9404 21.6425 23.4125 22.1222 20.9794 23.4691C20.9144 23.5051 20.8441 23.522 20.7749 23.522C20.626 23.522 20.4817 23.4434 20.4045 23.3039C20.2913 23.0995 20.3653 22.8421 20.5697 22.729ZM20.9794 26.4896C20.9144 26.5256 20.8441 26.5427 20.7749 26.5427C20.626 26.5427 20.4817 26.464 20.4045 26.3244C20.2913 26.12 20.3653 25.8627 20.5697 25.7497C23.1621 24.3145 25.8483 23.8029 29.024 24.14C29.2562 24.1647 29.4245 24.373 29.3999 24.6053C29.3754 24.8377 29.1675 25.005 28.9346 24.9813C25.9405 24.663 23.4125 25.1427 20.9794 26.4896Z" fill="#C28854"/>
<path d="M9.94629 11.5084V10.2412C9.94629 10.0074 9.70156 9.81818 9.46777 9.81818C9.23398 9.81818 8.98926 10.0074 8.98926 10.2412V11.3135C8.98926 11.3135 9.0933 11.3135 9.09296 11.3135C6.73668 11.1768 4.5608 11.2734 3.41496 11.3918C2.93351 11.441 2.56348 11.8977 2.56348 12.3836V13.3862C2.29004 13.3978 2.08496 13.4128 1.94824 13.4293V28.949C1.94824 29.835 2.64947 30.557 3.53548 30.557C3.59851 30.557 3.65012 30.5537 3.71144 30.5471C4.82426 30.4195 5.90591 30.3533 6.93759 30.3533C12.2203 30.3533 15.0616 32.0145 16.3086 33.0047C16.5192 33.172 16.8506 33.289 16.9873 33.351V14.757C15.2783 12.7595 12.5439 11.8776 9.94629 11.5084ZM14.4711 26.3244C14.3938 26.464 14.2495 26.5427 14.1006 26.5427C14.0313 26.5427 13.9611 26.5256 13.8962 26.4896C11.4632 25.1427 8.93539 24.6635 5.94104 24.9813C5.70821 25.0048 5.50047 24.8376 5.47572 24.6053C5.45098 24.373 5.61941 24.1648 5.8517 24.14C9.02761 23.8033 11.7134 24.3144 14.306 25.7497C14.5103 25.8627 14.5843 26.12 14.4711 26.3244ZM14.4711 23.3039C14.3938 23.4434 14.2495 23.522 14.1006 23.522C14.0313 23.522 13.9611 23.5051 13.8962 23.4691C11.4632 22.1222 8.93539 21.6431 5.94104 21.9608C5.70821 21.9842 5.50047 21.8171 5.47572 21.5848C5.45098 21.3525 5.61941 21.1442 5.8517 21.1195C9.02761 20.7826 11.7134 21.2937 14.306 22.729C14.5103 22.8421 14.5843 23.0995 14.4711 23.3039ZM14.4711 20.2834C14.3938 20.423 14.2495 20.5016 14.1006 20.5016C14.0313 20.5016 13.9611 20.4845 13.8962 20.4486C11.4632 19.1017 8.93539 18.6224 5.94104 18.9403C5.70821 18.9637 5.50047 18.7966 5.47572 18.5643C5.45098 18.3321 5.61941 18.1238 5.8517 18.099C9.02761 17.7624 11.7134 18.2734 14.306 19.7085C14.5103 19.8216 14.5843 20.0791 14.4711 20.2834ZM14.4711 17.2629C14.3938 17.4024 14.2495 17.4811 14.1006 17.4811C14.0313 17.4811 13.9611 17.464 13.8962 17.4281C11.4632 16.0812 8.93539 15.602 5.94104 15.9198C5.70821 15.9433 5.50047 15.7761 5.47572 15.5438C5.45104 15.3114 5.61941 15.1032 5.8517 15.0785C9.02761 14.7418 11.7134 15.2529 14.306 16.688C14.5103 16.8011 14.5843 17.0585 14.4711 17.2629Z" fill="#C28854"/>
<path d="M33.0426 31.8763C25.949 31.127 21.6785 32.71 19.4497 34.0771H32.9294C33.5692 34.0771 34.077 33.6015 34.077 32.9619V30.9562C34.0771 31.516 33.5994 31.9345 33.0426 31.8763Z" fill="#C28854"/>
<path d="M1.90565 31.8763C1.34887 31.9346 0.854492 31.516 0.854492 30.9562V32.9619C0.854492 33.6015 1.39262 34.0771 2.03253 34.0771H15.5122C13.2852 32.71 8.99931 31.127 1.90565 31.8763Z" fill="#C28854"/>
</g>
<defs>
<clipPath id="clip0_58_5">
<rect width="35" height="35" fill="white"/>
</clipPath>
</defs>
</svg>
