<svg width="158" height="158" viewBox="0 0 158 158" fill="none" xmlns="http://www.w3.org/2000/svg">
<path d="M36.9495 22.6816H41.0587L41.0791 38.4604C41.0803 39.5139 41.9348 40.5801 42.9886 40.5801C42.9893 40.5801 42.9899 40.5801 42.9911 40.5801C44.0459 40.5801 44.8995 39.5096 44.8982 38.4554L44.8779 22.6816H48.9717C49.6401 22.6816 50.232 22.5289 50.4804 21.9095C50.7294 21.2899 50.5773 20.7156 50.094 20.2546L44.0829 14.574C43.4537 13.9737 42.4684 14.0034 41.8385 14.6051L35.8271 20.3635C35.3445 20.8245 35.1929 21.2828 35.4414 21.9024C35.6898 22.5218 36.2817 22.6816 36.9495 22.6816Z" fill="#C28854"/>
<path d="M114.488 44.3221C113.433 44.3221 112.791 45.1763 112.791 46.2317V52.0088C113.408 51.8351 114.951 51.6827 116.186 51.5503V46.232C116.186 45.1763 115.544 44.3221 114.488 44.3221Z" fill="#C28854"/>
<path d="M108.757 22.6817H112.867L112.886 38.4604C112.888 39.5139 113.742 40.5801 114.796 40.5801C114.797 40.5801 114.798 40.5801 114.798 40.5801C115.853 40.5801 116.707 39.5096 116.706 38.4554L116.685 22.6817H120.779C121.447 22.6817 121.958 22.5295 122.206 21.9102C122.455 21.2905 122.666 20.7638 121.74 20.3027V20.3407L115.81 14.6172C115.18 14.0163 114.235 14.0253 113.605 14.6267L107.615 20.3737C107.131 20.8347 106.989 21.2868 107.238 21.9077C107.486 22.5274 108.089 22.6817 108.757 22.6817Z" fill="#C28854"/>
<path d="M92.0424 34.3203L88.2557 23.4951C88.0589 22.9317 88.2747 22.3151 88.791 21.9674L98.7046 15.0374C99.8578 14.259 99.266 12.3262 97.8401 12.3262H85.5855C84.9482 12.3262 84.3826 12.1837 84.1862 11.6211L80.3994 0.915271C79.959 -0.344211 78.0407 -0.28431 77.6003 0.97478L73.8135 11.5913C73.6167 12.1543 73.0511 12.3262 72.4142 12.3262H60.1596C58.7345 12.3262 58.1419 14.259 59.2951 15.0374L69.2091 21.8484C69.7254 22.1957 69.9408 22.8722 69.7436 23.436L65.9568 34.2909C65.5164 35.5504 67.0683 36.6126 68.2215 35.8339L78.1356 29.1508C78.6511 28.8028 79.3491 28.8067 79.8654 29.1551L89.7794 35.8468C90.9318 36.6251 92.4829 35.5798 92.0424 34.3203Z" fill="#EADD6D"/>
<path d="M141.152 137.899C141.428 137.928 141.541 137.944 141.817 137.944C145.816 137.944 148.896 134.684 148.896 130.685V60.6239C148.279 60.5492 146.736 60.4816 146.119 60.4291V55.9033C146.119 53.7095 144.518 51.8765 142.345 51.6546C137.131 51.1201 127.256 50.4532 116.528 51.5497C115.264 51.6824 114 51.8348 112.722 52.0082C100.808 53.6953 88.6645 57.7709 81.0136 66.7279C81.0117 66.7303 81.0059 66.7328 81.0059 66.735V150.557C81.623 150.279 83.1997 149.75 84.152 148.993C89.7813 144.522 102.736 137.023 126.592 137.023C131.242 137.024 136.128 137.323 141.152 137.899ZM92.8574 75.3345C104.561 68.8559 116.687 66.5473 131.022 68.0687C132.071 68.1801 132.83 69.1198 132.72 70.1693C132.609 71.2173 131.67 71.9739 130.619 71.8666C117.102 70.4297 105.691 72.5945 94.7071 78.6754C94.4136 78.8374 94.0964 78.9145 93.7838 78.9145C93.1117 78.9145 92.4602 78.5596 92.1118 77.9298C91.6008 77.0071 91.9347 75.8449 92.8574 75.3345ZM92.8574 88.9701C104.561 82.4914 116.687 80.1813 131.022 81.7042C132.071 81.8156 132.83 82.7559 132.72 83.8048C132.609 84.8528 131.67 85.6095 130.619 85.5021C117.102 84.0653 105.691 86.2307 94.7071 92.3109C94.4136 92.4729 94.0964 92.5501 93.7838 92.5501C93.1117 92.5501 92.4602 92.1952 92.1118 91.5653C91.6008 90.6426 91.9347 89.4805 92.8574 88.9701ZM92.8574 102.605C104.561 96.1273 116.687 93.8168 131.022 95.3394C132.071 95.4508 132.83 96.3911 132.72 97.44C132.609 98.488 131.67 99.2447 130.619 99.1373C117.102 97.7005 105.691 99.8659 94.7071 105.946C94.4136 106.109 94.0964 106.185 93.7838 106.185C93.1117 106.185 92.4602 105.83 92.1118 105.201C91.6008 104.278 91.9347 103.116 92.8574 102.605ZM94.7071 119.582C94.4136 119.744 94.0964 119.821 93.7838 119.821C93.1117 119.821 92.4602 119.466 92.1118 118.836C91.6008 117.913 91.9347 116.752 92.8574 116.241C104.561 109.763 116.687 107.453 131.022 108.975C132.071 109.086 132.83 110.027 132.72 111.076C132.609 112.124 131.67 112.88 130.619 112.773C117.103 111.336 105.691 113.501 94.7071 119.582Z" fill="#C28854"/>
<path d="M44.9004 51.9521V46.2317C44.9004 45.1763 43.7956 44.3221 42.7402 44.3221C41.6848 44.3221 40.5801 45.1763 40.5801 46.2317V51.0723C40.5801 51.0723 41.0498 51.0723 41.0482 51.0723C30.4113 50.4551 20.5888 50.8914 15.4161 51.4259C13.2427 51.6478 11.5723 53.7095 11.5723 55.9033V60.4291C10.3379 60.4816 9.41211 60.5492 8.79492 60.6239V130.684C8.79492 134.684 11.9605 137.943 15.9602 137.943C16.2447 137.943 16.4777 137.928 16.7545 137.899C21.7781 137.322 26.661 137.023 31.3183 137.023C55.1661 137.023 67.9925 144.522 73.6218 148.993C74.5723 149.748 76.0684 150.276 76.6855 150.556V66.6174C68.9707 57.5999 56.627 53.6191 44.9004 51.9521ZM65.3268 118.836C64.9778 119.466 64.3264 119.821 63.6543 119.821C63.3413 119.821 63.0244 119.744 62.7316 119.582C51.7481 113.501 40.3369 111.338 26.8196 112.773C25.7685 112.879 24.8307 112.124 24.719 111.076C24.6073 110.027 25.3676 109.087 26.4162 108.975C40.7532 107.455 52.8775 109.762 64.5813 116.241C65.5037 116.752 65.8376 117.913 65.3268 118.836ZM65.3268 105.201C64.9778 105.83 64.3264 106.185 63.6543 106.185C63.3413 106.185 63.0244 106.109 62.7316 105.946C51.7481 99.8659 40.3369 97.7032 26.8196 99.1373C25.7685 99.2428 24.8307 98.4886 24.719 97.44C24.6073 96.3914 25.3676 95.4511 26.4162 95.3394C40.7532 93.8187 52.8775 96.126 64.5813 102.605C65.5037 103.116 65.8376 104.278 65.3268 105.201ZM65.3268 91.5653C64.9778 92.1952 64.3264 92.55 63.6543 92.55C63.3413 92.55 63.0244 92.4729 62.7316 92.3109C51.7481 86.2307 40.3369 84.0668 26.8196 85.5021C25.7685 85.6076 24.8307 84.8534 24.719 83.8048C24.6073 82.7562 25.3676 81.8159 26.4162 81.7042C40.7532 80.1847 52.8775 82.4914 64.5813 88.97C65.5037 89.4805 65.8376 90.6426 65.3268 91.5653ZM65.3268 77.9298C64.9778 78.5596 64.3264 78.9145 63.6543 78.9145C63.3413 78.9145 63.0244 78.8374 62.7316 78.6754C51.7481 72.5951 40.3369 70.4319 26.8196 71.8665C25.7685 71.9727 24.8307 71.2179 24.719 70.1693C24.6076 69.1201 25.3676 68.1804 26.4162 68.0687C40.7532 66.5485 52.8775 68.8559 64.5813 75.3345C65.5037 75.8449 65.8376 77.0071 65.3268 77.9298Z" fill="#C28854"/>
<path d="M149.164 143.899C117.142 140.516 97.8631 147.662 87.8018 153.834H148.653C151.541 153.834 153.834 151.687 153.834 148.799V139.745C153.834 142.272 151.678 144.161 149.164 143.899Z" fill="#C28854"/>
<path d="M8.60267 143.899C6.08917 144.162 3.85742 142.272 3.85742 139.745V148.799C3.85742 151.687 6.28667 153.834 9.17542 153.834H70.0267C59.973 147.662 40.6254 140.516 8.60267 143.899Z" fill="#C28854"/>
</svg>
