<svg width="11" height="11" viewBox="0 0 11 11" fill="none" xmlns="http://www.w3.org/2000/svg">
<path d="M9.4375 6.25H8.8125C8.72962 6.25 8.65013 6.28292 8.59153 6.34153C8.53292 6.40013 8.5 6.47962 8.5 6.5625V8.75H2.25V2.5H5.0625C5.14538 2.5 5.22487 2.46708 5.28347 2.40847C5.34208 2.34987 5.375 2.27038 5.375 2.1875V1.5625C5.375 1.47962 5.34208 1.40013 5.28347 1.34153C5.22487 1.28292 5.14538 1.25 5.0625 1.25H1.9375C1.68886 1.25 1.4504 1.34877 1.27459 1.52459C1.09877 1.7004 1 1.93886 1 2.1875L1 9.0625C1 9.31114 1.09877 9.5496 1.27459 9.72541C1.4504 9.90123 1.68886 10 1.9375 10H8.8125C9.06114 10 9.2996 9.90123 9.47541 9.72541C9.65123 9.5496 9.75 9.31114 9.75 9.0625V6.5625C9.75 6.47962 9.71708 6.40013 9.65847 6.34153C9.59987 6.28292 9.52038 6.25 9.4375 6.25ZM10.5312 0H8.03125C7.61387 0 7.40527 0.506055 7.69922 0.800781L8.39707 1.49863L3.63672 6.25723C3.59302 6.30078 3.55835 6.35252 3.53469 6.4095C3.51103 6.46648 3.49885 6.52756 3.49885 6.58926C3.49885 6.65095 3.51103 6.71204 3.53469 6.76902C3.55835 6.82599 3.59302 6.87774 3.63672 6.92129L4.07949 7.36328C4.12304 7.40698 4.17479 7.44165 4.23176 7.46531C4.28874 7.48897 4.34983 7.50115 4.41152 7.50115C4.47322 7.50115 4.5343 7.48897 4.59128 7.46531C4.64826 7.44165 4.70001 7.40698 4.74355 7.36328L9.50156 2.60391L10.1992 3.30078C10.4922 3.59375 11 3.38867 11 2.96875V0.46875C11 0.34443 10.9506 0.225201 10.8627 0.137294C10.7748 0.049386 10.6556 0 10.5312 0V0Z" fill="#C28854"/>
</svg>
